<?xml version="1.0" encoding="utf-8"?>
<!-- Generator: Adobe Illustrator 15.0.0, SVG Export Plug-In . SVG Version: 6.00 Build 0)  -->
<!DOCTYPE svg PUBLIC "-//W3C//DTD SVG 1.1//EN" "http://www.w3.org/Graphics/SVG/1.1/DTD/svg11.dtd" [
	<!ENTITY ns_flows "http://ns.adobe.com/Flows/1.0/">
	<!ENTITY ns_extend "http://ns.adobe.com/Extensibility/1.0/">
	<!ENTITY ns_ai "http://ns.adobe.com/AdobeIllustrator/10.0/">
	<!ENTITY ns_graphs "http://ns.adobe.com/Graphs/1.0/">
]>
<svg version="1.1" id="Layer_1" xmlns:x="&ns_extend;" xmlns:i="&ns_ai;" xmlns:graph="&ns_graphs;"
	 xmlns="http://www.w3.org/2000/svg" xmlns:xlink="http://www.w3.org/1999/xlink" xmlns:a="http://ns.adobe.com/AdobeSVGViewerExtensions/3.0/"
	 x="0px" y="0px" width="26.2px" height="26.4px" viewBox="0 0 26.2 26.4" enable-background="new 0 0 26.2 26.4"
	 xml:space="preserve">
<g>
	
	<path fill="#FFFFFF" d="M22.6,1.4c-1.1,0.5-2.1,1.1-3.1,1.7C12.6,7.3,7.4,13.9,4.8,21.9l3-1.7
		c0,0,0.6-3.2,2.5-5c0.3-0.3,0.8-0.5,1.3-0.5c1.2,0,2.7,0.6,4,0.6c0.3,0,0.6,0,1-0.1C17.1,15,18,14,19,12.5
		c-1.3-0.2-2.7-0.9-3.3-1.6c1.7,0,3.8-0.6,5.2-1.1c0.2-0.3,0.4-0.6,0.6-0.9c-1-0.3-1.9-0.8-2.4-1.3c1.1,0,2.4-0.3,3.6-0.6
		c0.2-0.4,0.5-0.8,0.7-1.2c0.1-0.1,0.1-0.2,0.2-0.3c-0.1,0-0.1-0.1-0.2-0.1c-0.8-0.3-1.5-0.7-1.9-1.2c0.6,0,1.2-0.1,1.9-0.2
		c0.4-0.1,0.8-0.2,1.2-0.3c0.2-0.3,0.3-0.6,0.5-0.8C25.9,1.2,26.2,0,26.2,0C25,0.4,23.8,0.9,22.6,1.4"/>
	<path fill="#FFFFFF" d="M24.5,7.8L24.5,7.8l-1.2,1.9v15.1H3.7h-2h0V3.1h14.3c0.8-0.6,1.6-1.1,2.5-1.7H0
		v25h25V6.9C24.8,7.2,24.7,7.5,24.5,7.8"/>
</g>
</svg>
