<?xml version="1.0" encoding="utf-8"?>
<!-- Generator: Adobe Illustrator 23.0.4, SVG Export Plug-In . SVG Version: 6.00 Build 0)  -->
<svg version="1.1" id="Layer_1" xmlns="http://www.w3.org/2000/svg" xmlns:xlink="http://www.w3.org/1999/xlink" x="0px" y="0px"
	 viewBox="0 0 200 50" style="enable-background:new 0 0 200 50;" xml:space="preserve">
<style type="text/css">
	.st0{fill:#302F68;}
</style>
<g>
	<g>
		<path class="st0" d="M106.2,23.8L95,17c-1.1-0.7-2-0.2-2,1.1V32c0,1.3,0.9,1.8,2,1.1l11.2-6.8C107.3,25.5,107.3,24.5,106.2,23.8"
			/>
	</g>
	<g>
		<path class="st0" d="M106.2,23.8L95,17c-1.1-0.7-2-0.2-2,1.1V32c0,1.3,0.9,1.8,2,1.1l11.2-6.8C107.3,25.5,107.3,24.5,106.2,23.8"
			/>
	</g>
</g>
<g>
	<polygon class="st0" points="175,31.6 168.5,35 169.7,27.8 164.5,22.6 171.8,21.6 175,15 178.2,21.6 185.5,22.6 180.3,27.8 
		181.5,35 	"/>
</g>
<g>
	<rect x="13.5" y="33.3" class="st0" width="23.3" height="3.3"/>
	<rect x="13.5" y="23.4" class="st0" width="23.3" height="3.3"/>
	<rect x="13.5" y="13.3" class="st0" width="23.3" height="3.3"/>
</g>
</svg>
